<?xml version="1.0" encoding="UTF-8" standalone="no"?>
<!DOCTYPE svg PUBLIC "-//W3C//DTD SVG 1.1//EN" "http://www.w3.org/Graphics/SVG/1.1/DTD/svg11.dtd">
<svg width="100%" height="100%" viewBox="0 0 2724 1664" version="1.1" xmlns="http://www.w3.org/2000/svg" xmlns:xlink="http://www.w3.org/1999/xlink" xml:space="preserve" xmlns:serif="http://www.serif.com/" style="fill-rule:evenodd;clip-rule:evenodd;stroke-linecap:round;stroke-linejoin:round;stroke-miterlimit:1.5;">
    <g transform="matrix(-1,-3.21358e-16,3.21358e-16,-1,2724,1664)">
        <rect x="0" y="0" width="2724" height="1664" style="fill:url(#_Linear1);"/>
    </g>
    <g transform="matrix(1,0,0,1,0,-300)">
        <path d="M0,1964L154.119,1847.41L152.503,1591.4" style="fill:none;stroke:rgb(28,54,19);stroke-width:10px;"/>
    </g>
    <g transform="matrix(1,0,0,1,0,-300)">
        <path d="M154.119,1964L288.756,1857.38L282.482,1529.8" style="fill:none;stroke:rgb(28,54,19);stroke-width:10px;"/>
    </g>
    <g transform="matrix(1,0,0,1,0,-300)">
        <path d="M0,1819.87L77.059,1722.4L77.059,1488.01L198.4,1369.45L371.936,1367.42" style="fill:none;stroke:rgb(28,54,19);stroke-width:10px;"/>
    </g>
    <g transform="matrix(1,0,0,1,0,-300)">
        <path d="M565.468,1964L414.529,1746.9L406.692,1529.8" style="fill:none;stroke:rgb(28,54,19);stroke-width:10px;"/>
    </g>
    <g transform="matrix(1,0,0,1,-300,-300)">
        <path d="M3024,753.282L2801.7,951.986L2803.38,1307.18L2873.96,1367.42L2873.32,1529.8" style="fill:none;stroke:rgb(28,54,19);stroke-width:10px;"/>
    </g>
    <g transform="matrix(1,0,0,1,-300,-300)">
        <path d="M3024,930.218L2912.85,1034.43L2912.85,1222.73" style="fill:none;stroke:rgb(28,54,19);stroke-width:10px;"/>
    </g>
    <g transform="matrix(1,0,0,1,-300,-300)">
        <path d="M2912.85,1964L2912.85,1758.37L2801.7,1727.23L2801.7,1529.8" style="fill:none;stroke:rgb(28,54,19);stroke-width:10px;"/>
    </g>
    <g transform="matrix(1,0,0,1,-300,-300)">
        <path d="M2264.78,1964L2292.42,1915.17L2570.54,1915.03L2663.13,1845.86L2663.13,1623.46" style="fill:none;stroke:rgb(28,54,19);stroke-width:10px;"/>
    </g>
    <g transform="matrix(1,0,0,1,-300,-300)">
        <path d="M2663.13,1964L2732.7,1918.74L2734.39,1835.62" style="fill:none;stroke:rgb(28,54,19);stroke-width:10px;"/>
    </g>
    <g transform="matrix(1,0,0,1,-300,-300)">
        <path d="M2770.67,1964L2826.53,1899.81L2825.14,1793.73" style="fill:none;stroke:rgb(28,54,19);stroke-width:10px;"/>
    </g>
    <g transform="matrix(0.226665,0,0,0.197017,278.071,888.95)">
        <ellipse cx="489.115" cy="905.865" rx="66.177" ry="76.135" style="fill:none;stroke:rgb(28,54,19);stroke-width:47.09px;"/>
    </g>
    <g transform="matrix(0.226665,0,0,0.197017,170.743,1033.24)">
        <ellipse cx="489.115" cy="905.865" rx="66.177" ry="76.135" style="fill:none;stroke:rgb(28,54,19);stroke-width:47.09px;"/>
    </g>
    <g transform="matrix(0.226665,0,0,0.197017,295.071,1033.24)">
        <ellipse cx="489.115" cy="905.865" rx="66.177" ry="76.135" style="fill:none;stroke:rgb(28,54,19);stroke-width:47.09px;"/>
    </g>
    <g transform="matrix(0.226665,0,0,0.197017,2250.46,1127.17)">
        <ellipse cx="489.115" cy="905.865" rx="66.177" ry="76.135" style="fill:none;stroke:rgb(28,54,19);stroke-width:47.09px;"/>
    </g>
    <g transform="matrix(0.226665,0,0,0.197017,2391.36,1033.24)">
        <ellipse cx="489.115" cy="905.865" rx="66.177" ry="76.135" style="fill:none;stroke:rgb(28,54,19);stroke-width:47.09px;"/>
    </g>
    <g transform="matrix(0.226665,0,0,0.197017,2462.77,1067.24)">
        <ellipse cx="489.115" cy="905.865" rx="66.177" ry="76.135" style="fill:none;stroke:rgb(28,54,19);stroke-width:47.09px;"/>
    </g>
    <g transform="matrix(0.226665,0,0,0.197017,2324.46,1336.48)">
        <ellipse cx="489.115" cy="905.865" rx="66.177" ry="76.135" style="fill:none;stroke:rgb(28,54,19);stroke-width:47.09px;"/>
    </g>
    <g transform="matrix(0.226665,0,0,0.197017,2414.36,1300.48)">
        <ellipse cx="489.115" cy="905.865" rx="66.177" ry="76.135" style="fill:none;stroke:rgb(28,54,19);stroke-width:47.09px;"/>
    </g>
    <g transform="matrix(0.226665,0,0,0.197017,2503.24,765)">
        <ellipse cx="489.115" cy="905.865" rx="66.177" ry="76.135" style="fill:none;stroke:rgb(28,54,19);stroke-width:47.09px;"/>
    </g>
    <g transform="matrix(0.226665,0,0,0.197017,41.2485,1097.17)">
        <ellipse cx="489.115" cy="905.865" rx="66.177" ry="76.135" style="fill:none;stroke:rgb(28,54,19);stroke-width:47.09px;"/>
    </g>
    <defs>
        <linearGradient id="_Linear1" x1="0" y1="0" x2="1" y2="0" gradientUnits="userSpaceOnUse" gradientTransform="matrix(2296.33,1664,-1664,2296.33,425.894,-2.27374e-13)"><stop offset="0" style="stop-color:rgb(226,209,195);stop-opacity:1"/><stop offset="1" style="stop-color:rgb(151,191,130);stop-opacity:1"/></linearGradient>
    </defs>
</svg>
