<?xml version="1.0" encoding="UTF-8" standalone="no"?>
<!DOCTYPE svg PUBLIC "-//W3C//DTD SVG 1.1//EN" "http://www.w3.org/Graphics/SVG/1.1/DTD/svg11.dtd">
<svg width="100%" height="100%" viewBox="0 0 24 24" version="1.1" xmlns="http://www.w3.org/2000/svg" xmlns:xlink="http://www.w3.org/1999/xlink" xml:space="preserve" xmlns:serif="http://www.serif.com/" style="fill-rule:evenodd;clip-rule:evenodd;stroke-linejoin:round;stroke-miterlimit:2;">
    <path d="M9.101,23.691L9.101,15.711L6.627,15.711L6.627,12.044L9.101,12.044L9.101,10.464C9.101,6.379 10.949,4.486 14.959,4.486C15.36,4.486 15.914,4.528 16.427,4.589C16.811,4.629 17.192,4.694 17.568,4.784L17.568,8.109C17.351,8.089 17.133,8.077 16.915,8.073C16.671,8.067 16.426,8.064 16.182,8.064C15.475,8.064 14.923,8.16 14.507,8.373C14.227,8.513 13.992,8.729 13.828,8.995C13.57,9.415 13.454,9.99 13.454,10.747L13.454,12.044L17.373,12.044L16.987,14.147L16.7,15.711L13.454,15.711L13.454,23.956C19.396,23.238 24,18.179 24,12.044C24,5.417 18.627,0.044 12,0.044C5.373,0.044 0,5.417 0,12.044C0,17.672 3.874,22.394 9.101,23.691Z" style="fill:rgb(30,54,18);fill-rule:nonzero;"/>
</svg>
