<?xml version="1.0" encoding="UTF-8" standalone="no"?>
<!DOCTYPE svg PUBLIC "-//W3C//DTD SVG 1.1//EN" "http://www.w3.org/Graphics/SVG/1.1/DTD/svg11.dtd">
<svg width="100%" height="100%" viewBox="0 0 24 24" version="1.1" xmlns="http://www.w3.org/2000/svg" xmlns:xlink="http://www.w3.org/1999/xlink" xml:space="preserve" xmlns:serif="http://www.serif.com/" style="fill-rule:evenodd;clip-rule:evenodd;stroke-linejoin:round;stroke-miterlimit:2;">
    <path d="M21.543,7.104C21.558,7.315 21.558,7.527 21.558,7.74C21.558,14.247 16.604,21.75 7.548,21.75L7.548,21.747C4.873,21.751 2.252,20.984 -0,19.539C2.603,19.853 5.226,19.118 7.287,17.498C5.186,17.458 3.33,16.079 2.687,14.078C3.425,14.22 4.185,14.191 4.91,13.994C2.621,13.531 0.961,11.502 0.96,9.167L0.96,9.105C1.645,9.487 2.411,9.698 3.195,9.721C1.043,8.284 0.371,5.385 1.67,3.148C4.17,6.223 7.862,8.094 11.82,8.292C11.736,7.928 11.693,7.556 11.693,7.182C11.693,4.478 13.918,2.253 16.622,2.253C17.98,2.253 19.279,2.814 20.21,3.802C21.313,3.584 22.371,3.18 23.338,2.606C22.971,3.746 22.201,4.715 21.173,5.33C22.149,5.214 23.102,4.953 24,4.555C23.339,5.544 22.507,6.407 21.543,7.104Z" style="fill:rgb(30,54,18);fill-rule:nonzero;"/>
</svg>
